<?xml version="1.0" encoding="UTF-8"?>
<!DOCTYPE svg PUBLIC "-//W3C//DTD SVG 1.1//EN" "http://www.w3.org/Graphics/SVG/1.1/DTD/svg11.dtd">
<!-- Creator: CorelDRAW X5 -->
<svg xmlns="http://www.w3.org/2000/svg" xml:space="preserve" width="72.7922mm" height="58.6516mm" style="shape-rendering:geometricPrecision; text-rendering:geometricPrecision; image-rendering:optimizeQuality; fill-rule:evenodd; clip-rule:evenodd"
viewBox="0 0 7114 5732"
 xmlns:xlink="http://www.w3.org/1999/xlink">
 <defs>
  <style type="text/css">
   <![CDATA[
    .fil0 {fill:#F02137}
    .fil2 {fill:#FEFEFE;fill-rule:nonzero}
    .fil1 {fill:#0B2F63;fill-rule:nonzero}
   ]]>
  </style>
 </defs>
 <g id="Layer_x0020_1">
  <metadata id="CorelCorpID_0Corel-Layer"/>
  <g id="_436427824">
   <g>
    <polygon class="fil0" points="5574,5408 7114,5408 7114,5471 5574,5471 "/>
    <polygon class="fil0" points="0,5407 1540,5407 1540,5471 0,5471 "/>
    <g>
     <path class="fil1" d="M99 3877c0,36 3,67 10,92 6,25 15,46 26,64 11,17 23,31 37,43 15,12 31,22 47,29 17,7 33,12 49,15 16,3 32,5 46,6 15,1 27,1 38,1 18,0 36,-1 55,-4 19,-3 38,-8 57,-16 19,-8 39,-19 58,-34 17,-14 31,-29 41,-46 10,-17 18,-36 23,-55 5,-20 9,-40 11,-61 2,-21 3,-42 2,-63l0 -80c0,-23 0,-42 0,-58 0,-16 0,-29 0,-40 0,-11 0,-20 0,-27 0,-7 0,-13 0,-19 0,-5 1,-10 1,-15 1,-13 3,-23 7,-30 4,-7 12,-11 23,-13 5,-1 9,-1 12,-2 3,0 7,0 12,0 5,0 9,0 11,-1 2,-1 4,-3 4,-5 0,-3 -1,-4 -4,-5 -3,-1 -7,-1 -13,-1 -8,0 -17,0 -26,0 -10,0 -19,0 -28,1 -9,0 -17,0 -24,1 -7,0 -12,0 -14,0 0,0 -3,0 -9,0 -6,0 -13,0 -22,-1 -9,0 -19,-1 -30,-1 -11,0 -21,0 -32,0 -6,0 -10,0 -13,1 -3,1 -4,3 -4,5 0,2 1,4 4,5 2,1 6,1 10,1 3,0 7,0 10,0 4,0 7,0 11,1 4,0 6,1 9,1 9,2 16,4 21,8 5,3 8,8 11,14 2,6 3,13 4,21 0,5 1,10 1,15 0,5 0,11 1,19 0,7 0,16 0,27 0,11 0,24 0,40 0,16 0,35 0,58l0 93c0,19 0,38 -1,56 -1,18 -3,35 -6,50 -3,16 -8,30 -14,44 -7,13 -15,25 -26,36 -11,10 -23,18 -36,24 -13,6 -26,10 -39,13 -13,3 -26,4 -38,4 -9,0 -19,0 -31,-2 -11,-1 -23,-4 -35,-9 -12,-4 -24,-11 -37,-20 -10,-7 -19,-16 -27,-26 -8,-10 -15,-22 -20,-36 -6,-14 -10,-31 -12,-51 -3,-20 -4,-43 -4,-70l0 -105c0,-23 0,-42 0,-58 0,-16 0,-29 0,-40 0,-11 0,-20 0,-27 0,-7 0,-13 0,-19 0,-5 1,-10 1,-15 1,-13 3,-23 7,-30 4,-7 12,-11 23,-13 5,-1 9,-1 12,-2 3,0 7,0 12,0 4,0 7,0 10,-1 2,-1 3,-3 3,-5 0,-3 -1,-4 -4,-5 -3,-1 -7,-1 -14,-1 -7,0 -16,0 -25,0 -9,0 -19,0 -28,1 -10,0 -18,0 -27,1 -8,0 -15,0 -20,0 -8,0 -19,0 -32,-1 -13,0 -27,-1 -42,-1 -15,0 -30,-1 -45,-1 -6,0 -11,0 -14,1 -3,1 -4,3 -4,5 0,2 1,4 4,5 2,1 6,1 10,1 6,0 12,0 18,0 6,0 11,1 14,2 9,2 16,4 21,8 5,3 8,8 11,14 2,6 3,13 4,21 0,5 1,10 1,15 0,5 0,11 0,19 0,7 0,16 0,27 0,11 0,24 0,40 0,16 0,35 0,58l0 109zm716 -174l2 0c3,3 9,9 17,17 9,8 19,19 32,31 13,13 27,26 42,41 16,15 32,31 50,47 17,16 35,33 53,49 21,19 43,40 66,61 23,21 45,41 66,61 22,20 42,38 60,55 18,17 34,31 47,42 4,4 9,8 14,11 5,3 9,5 14,5 4,0 6,-2 8,-5 2,-4 3,-10 3,-18l9 -472c0,-14 1,-25 3,-34 2,-9 5,-15 9,-20 4,-5 10,-8 18,-10 5,-1 9,-2 13,-2 4,0 8,0 12,0 10,0 15,-2 15,-7 0,-3 -2,-5 -5,-6 -3,-1 -8,-1 -13,-1 -13,0 -25,0 -36,1 -11,0 -20,1 -28,1 -7,0 -13,1 -16,1 -6,0 -14,0 -24,-1 -10,0 -21,-1 -34,-1 -13,0 -26,-1 -41,-1 -6,0 -11,0 -15,1 -4,1 -6,3 -6,6 0,2 1,4 3,5 2,1 5,2 10,2 4,0 8,0 14,0 5,0 10,0 15,1 5,1 10,2 14,3 7,2 12,6 16,11 4,5 7,12 9,21 2,9 3,21 3,36l8 336 -4 0c-3,-3 -9,-8 -19,-17 -9,-9 -21,-20 -34,-33 -14,-13 -28,-27 -43,-41 -15,-15 -30,-29 -45,-42 -14,-14 -27,-26 -39,-36 -24,-22 -48,-44 -71,-65 -23,-22 -45,-42 -66,-62 -21,-20 -40,-37 -56,-53 -17,-16 -30,-29 -40,-39 -10,-10 -16,-16 -19,-18 -7,-7 -12,-12 -17,-17 -5,-4 -9,-6 -13,-6 -4,0 -7,2 -8,7 -2,5 -2,11 -2,18l-7 440c0,22 -1,39 -2,52 -1,13 -4,23 -7,29 -4,6 -9,10 -16,12 -6,1 -12,2 -19,3 -7,0 -13,1 -18,1 -4,0 -7,0 -9,1 -2,1 -4,2 -4,5 0,3 2,5 5,6 3,1 7,1 13,1 14,0 28,0 40,-1 12,0 23,-1 31,-1 9,0 14,-1 17,-1 8,0 20,0 37,1 17,1 38,1 64,1 6,0 10,0 14,-1 3,-1 5,-3 5,-6 0,-2 -1,-4 -4,-5 -2,-1 -6,-1 -10,-1 -7,0 -14,0 -21,-1 -7,-1 -14,-2 -21,-4 -5,-2 -10,-5 -14,-11 -4,-6 -7,-14 -10,-26 -2,-11 -4,-27 -4,-46l-9 -312zm686 197c0,24 0,47 0,68 0,21 -1,39 -1,55 -1,16 -1,30 -3,40 -1,11 -3,19 -7,26 -3,6 -9,10 -17,12 -4,1 -8,1 -13,2 -5,0 -10,1 -17,1 -5,0 -8,0 -10,2 -2,1 -3,2 -3,4 0,3 1,4 4,6 3,1 7,2 12,2 8,0 17,0 27,0 10,0 20,0 29,-1 10,0 19,0 27,-1 8,0 15,0 19,0 7,0 18,0 31,1 13,0 28,1 44,1 17,0 34,1 52,1 5,0 8,-1 11,-2 3,-1 4,-3 4,-6 0,-2 -1,-3 -3,-4 -2,-1 -5,-2 -10,-2 -4,0 -9,0 -14,0 -5,0 -10,-1 -15,-1 -5,0 -9,-1 -13,-1 -8,-1 -14,-3 -19,-6 -4,-3 -8,-7 -10,-12 -2,-5 -3,-11 -4,-18 -1,-11 -2,-24 -2,-41 0,-16 -1,-35 -1,-56 0,-21 0,-43 0,-68l0 -132c0,-23 0,-42 0,-58 0,-16 0,-29 0,-40 0,-11 0,-20 0,-27 0,-7 0,-13 0,-19 0,-5 1,-10 1,-15 1,-13 3,-23 7,-30 4,-7 12,-11 23,-13 5,-1 9,-1 13,-2 4,0 8,0 12,0 4,0 7,0 9,-1 2,-1 4,-3 4,-6 0,-2 -2,-4 -5,-5 -3,-1 -7,-1 -12,-1 -8,0 -16,0 -26,0 -9,0 -19,0 -28,1 -9,0 -18,0 -26,1 -8,0 -15,0 -20,0 -6,0 -13,0 -22,0 -9,0 -18,0 -28,-1 -10,0 -20,-1 -29,-1 -10,0 -18,0 -26,0 -7,0 -11,0 -15,1 -3,1 -5,2 -5,5 0,3 1,5 4,6 2,1 5,1 9,1 5,0 10,0 15,1 5,0 10,1 14,2 9,2 16,6 20,13 4,7 7,16 8,29 0,5 1,10 1,15 0,5 0,11 1,19 0,7 0,16 0,27 0,11 0,24 0,40 0,16 0,35 0,58l0 132zm531 182c5,12 9,21 12,27 3,7 6,11 9,14 3,3 6,4 9,4 4,0 7,-1 10,-5 3,-3 7,-9 11,-17 4,-8 10,-19 17,-34 6,-13 14,-30 24,-51 10,-22 23,-47 37,-77 14,-30 30,-63 47,-99 9,-18 17,-35 24,-50 7,-15 14,-29 20,-41 6,-13 12,-25 18,-37 6,-12 12,-24 17,-36 6,-12 12,-25 18,-39 7,-16 14,-28 19,-37 5,-9 10,-16 14,-20 4,-4 8,-8 11,-10 5,-3 10,-5 15,-6 5,-1 10,-2 14,-2 4,0 8,0 11,0 4,0 7,0 10,-1 2,-1 3,-3 3,-5 0,-3 -2,-4 -5,-5 -3,-1 -7,-1 -12,-1 -6,0 -13,0 -20,0 -7,0 -15,0 -22,1 -7,0 -14,0 -20,1 -6,0 -11,0 -14,0 -4,0 -9,0 -18,-1 -8,0 -18,-1 -30,-1 -12,0 -24,-1 -38,-1 -8,0 -13,0 -17,1 -4,1 -6,3 -6,6 0,2 1,4 4,5 3,1 6,1 10,1 5,0 11,0 17,1 6,0 11,1 16,3 4,1 6,3 8,6 2,2 3,5 3,8 0,3 -1,8 -2,13 -1,5 -3,10 -5,15 -3,7 -7,18 -13,32 -6,14 -13,30 -21,49 -8,19 -17,39 -26,60 -9,22 -19,43 -28,65 -10,22 -19,44 -28,64 -9,21 -17,40 -25,57 -7,17 -14,32 -19,44l-3 0 -140 -339c-6,-14 -10,-25 -14,-35 -3,-10 -5,-17 -5,-22 0,-3 1,-6 2,-9 1,-3 3,-5 6,-7 3,-2 8,-4 13,-4 6,-1 12,-1 18,-1 4,0 7,0 9,-1 2,-1 3,-3 3,-5 0,-3 -2,-4 -6,-5 -4,-1 -8,-1 -13,-1 -14,0 -27,0 -39,1 -13,0 -24,1 -35,1 -10,0 -19,1 -26,1 -10,0 -21,0 -34,-1 -13,0 -26,-1 -41,-1 -14,0 -29,-1 -43,-1 -6,0 -11,0 -15,1 -4,1 -6,3 -6,6 0,2 1,4 2,5 1,1 4,2 8,2 3,0 8,0 14,0 6,0 12,1 18,3 10,2 18,5 25,9 7,4 13,9 19,17 6,7 12,18 18,31l205 457zm492 -182c0,23 0,45 0,65 0,20 -1,38 -1,54 -1,16 -1,29 -3,40 -1,7 -2,14 -4,20 -2,6 -4,11 -7,14 -3,4 -7,6 -13,7 -4,1 -8,1 -13,2 -5,0 -10,1 -17,1 -5,0 -8,0 -10,2 -2,1 -3,2 -3,4 0,3 1,4 4,6 3,1 7,2 12,2 8,0 17,0 27,-1 10,0 20,-1 29,-1 10,0 19,-1 27,-1 8,0 15,0 19,0 12,0 25,0 38,0 14,0 29,1 46,2 17,0 38,1 61,1 23,0 50,1 80,1 10,0 18,0 24,-1 6,-1 10,-2 13,-5 3,-3 5,-7 7,-14 1,-4 2,-10 3,-17 1,-7 2,-15 3,-24 1,-9 2,-17 3,-24 1,-8 1,-14 1,-18 0,-4 0,-7 -1,-9 -1,-3 -3,-4 -6,-4 -3,0 -5,1 -6,2 -1,2 -2,5 -3,9 -3,15 -7,27 -12,36 -6,9 -14,15 -24,20 -7,3 -15,5 -25,6 -9,1 -18,2 -27,2 -9,0 -17,0 -25,0 -21,0 -37,-1 -50,-2 -13,-2 -23,-5 -29,-10 -7,-4 -11,-11 -14,-19 -3,-8 -4,-19 -4,-32 0,-4 0,-10 0,-18 0,-7 0,-16 0,-25 0,-9 0,-18 0,-28 0,-9 0,-18 0,-26 0,-8 0,-14 0,-20l0 -59c0,-2 0,-4 1,-5 1,-1 2,-2 4,-2 4,0 10,0 18,0 8,0 17,0 27,0 10,0 20,0 29,0 10,0 18,0 26,1 7,0 13,0 16,1 10,1 18,3 24,6 6,3 11,6 14,10 3,4 6,9 7,14 1,5 2,10 2,14 0,5 1,9 1,13 0,2 1,3 1,5 1,1 3,2 6,2 2,0 4,-1 5,-2 1,-1 2,-3 2,-5 0,-2 0,-4 0,-6 0,-1 0,-4 0,-8 0,-4 1,-8 1,-13 0,-5 1,-10 1,-15 0,-5 1,-9 1,-13 1,-13 2,-23 3,-30 1,-7 2,-13 2,-17 1,-4 1,-6 1,-8 0,-2 -1,-4 -2,-5 -1,-1 -2,-1 -4,-1 -2,0 -4,1 -6,3 -2,2 -4,4 -7,7 -4,4 -9,6 -15,8 -6,2 -14,3 -24,3 -4,0 -10,0 -19,1 -9,0 -19,0 -30,0 -11,0 -22,0 -33,0 -11,0 -21,0 -30,0 -9,0 -15,0 -19,0 -2,0 -4,-1 -5,-2 -1,-1 -1,-3 -1,-6l0 -189c0,-3 0,-4 1,-6 1,-1 2,-2 4,-2 3,0 9,0 17,0 8,0 17,0 27,0 10,0 20,0 30,1 10,0 19,0 26,1 8,0 13,0 16,1 13,1 24,3 31,6 7,2 13,5 16,9 3,3 6,7 8,12 1,3 2,6 3,10 1,3 1,7 1,10 0,3 0,5 0,7 0,3 1,6 2,8 1,2 3,3 6,3 3,0 5,-1 6,-3 1,-2 2,-3 2,-5 0,-2 1,-6 1,-10 0,-5 1,-9 1,-15 0,-5 1,-10 1,-14 0,-4 1,-8 1,-10 1,-11 2,-20 3,-27 1,-6 2,-11 3,-15 1,-3 1,-6 1,-7 0,-2 0,-3 -1,-5 -1,-1 -2,-2 -4,-2 -2,0 -4,0 -7,1 -2,1 -4,1 -7,2 -3,1 -8,1 -14,2 -6,1 -13,1 -21,2 -3,0 -9,0 -19,0 -10,0 -21,0 -35,0 -14,0 -28,0 -44,0 -15,0 -30,0 -45,0 -14,0 -27,0 -38,0 -11,0 -18,0 -23,0 -6,0 -13,0 -22,0 -9,0 -19,-1 -29,-1 -10,0 -21,0 -32,0 -11,0 -23,0 -34,0 -6,0 -11,0 -14,1 -3,1 -4,3 -4,5 0,2 1,4 4,5 2,1 6,1 10,1 6,0 12,0 18,0 6,0 11,1 14,2 9,2 16,4 21,8 5,3 8,8 11,14 2,6 3,13 4,21 0,5 1,10 1,15 0,5 0,11 1,19 0,7 0,16 0,27 0,11 0,24 0,40 0,16 0,35 0,58l0 132z"/>
     <path class="fil1" d="M3005 3899c0,23 0,45 0,65 0,20 -1,38 -1,54 -1,16 -1,29 -3,40 -1,7 -2,14 -4,20 -2,6 -4,11 -7,14 -3,4 -7,6 -13,7 -4,1 -8,1 -13,2 -5,0 -10,1 -17,1 -5,0 -8,0 -10,2 -2,1 -3,2 -3,4 0,3 1,4 4,6 3,1 7,2 12,2 8,0 17,0 27,0 10,0 19,0 29,-1 10,0 18,0 26,-1 8,0 14,0 17,0 3,0 9,0 17,0 8,0 18,0 29,1 11,0 23,0 36,1 13,0 25,0 37,0 5,0 9,-1 12,-2 3,-1 4,-3 4,-6 0,-2 -1,-3 -2,-4 -2,-1 -4,-2 -7,-2 -3,0 -7,0 -12,0 -5,0 -9,-1 -14,-1 -5,0 -9,-1 -14,-1 -8,-1 -14,-3 -19,-7 -4,-4 -7,-8 -9,-14 -2,-6 -3,-12 -4,-20 -1,-11 -2,-24 -3,-40 -1,-16 -1,-34 -1,-55 0,-20 0,-42 0,-65l0 -10c0,-2 1,-4 2,-5 1,-1 3,-1 5,-1l71 1c3,0 6,0 8,1 2,1 5,2 7,4 3,3 7,8 12,15 6,7 12,16 20,25 7,10 15,20 24,31 8,11 17,21 25,32 15,19 29,36 41,50 12,14 24,27 36,36 11,10 23,18 34,23 7,3 14,6 22,8 8,2 17,4 27,4 10,1 23,1 38,1l77 0c5,0 9,0 11,-1 3,-1 4,-3 4,-6 0,-2 -1,-3 -2,-4 -2,-1 -4,-2 -7,-2 -3,0 -7,0 -10,0 -4,0 -8,-1 -12,-2 -3,0 -7,-1 -13,-3 -6,-1 -12,-4 -20,-7 -8,-3 -17,-8 -26,-15 -10,-6 -20,-15 -32,-26 -24,-23 -50,-51 -79,-84 -29,-33 -61,-70 -98,-112 27,-20 49,-40 64,-58 16,-19 27,-37 33,-55 7,-18 10,-36 10,-54 0,-13 -2,-24 -5,-35 -4,-11 -8,-21 -14,-30 -6,-9 -12,-16 -18,-23 -6,-6 -12,-11 -18,-15 -15,-9 -30,-16 -47,-21 -17,-5 -34,-8 -51,-9 -17,-1 -35,-2 -52,-2 -7,0 -15,0 -25,0 -10,0 -20,0 -32,1 -11,0 -22,0 -32,1 -10,0 -19,0 -26,0 -4,0 -11,0 -19,0 -8,0 -17,0 -27,-1 -10,0 -21,-1 -32,-1 -11,0 -22,0 -33,0 -6,0 -11,0 -14,1 -3,1 -4,3 -4,5 0,2 1,4 4,5 2,1 6,1 10,1 6,0 12,0 18,0 6,0 11,1 14,2 9,2 16,4 21,8 5,3 8,8 11,14 2,6 3,13 4,21 0,5 1,10 1,15 0,5 0,11 1,19 0,7 0,16 0,27 0,11 0,24 0,40 0,16 0,35 0,58l0 132zm96 -300c0,-3 0,-5 1,-7 1,-2 3,-3 6,-3 4,-1 10,-2 17,-2 7,0 16,-1 26,-1 10,0 20,1 31,4 11,3 22,7 33,14 11,6 21,15 30,25 9,11 16,24 22,39 5,15 8,34 8,55 0,20 -2,38 -7,53 -4,15 -10,27 -18,37 -7,10 -15,17 -23,23 -5,3 -9,6 -14,8 -5,2 -11,3 -17,4 -7,1 -15,1 -26,1 -7,0 -14,0 -21,-1 -7,0 -15,-1 -21,-2 -7,-1 -13,-2 -19,-4 -3,-1 -5,-2 -6,-4 -1,-2 -1,-5 -1,-9l0 -227zm621 527c14,0 29,-1 44,-3 15,-2 29,-5 44,-9 14,-4 28,-11 42,-19 19,-12 35,-25 46,-40 11,-15 19,-30 24,-45 5,-16 7,-31 7,-45 0,-18 -2,-34 -7,-50 -5,-16 -12,-31 -23,-46 -10,-15 -24,-30 -41,-46 -17,-15 -38,-32 -62,-48l-23 -16c-22,-16 -40,-29 -52,-41 -13,-12 -21,-23 -27,-34 -5,-11 -7,-22 -7,-33 0,-15 4,-28 12,-40 8,-12 19,-21 33,-27 14,-6 32,-10 52,-10 18,0 32,2 44,6 12,4 21,9 28,14 7,6 13,11 17,16 6,7 10,13 13,20 3,7 5,13 6,18 1,5 2,9 2,11 0,4 1,8 2,10 1,2 3,3 6,3 3,0 6,-2 7,-5 1,-3 2,-9 2,-17 0,-19 0,-35 1,-47 1,-12 1,-21 2,-28 1,-7 1,-11 1,-15 0,-3 -1,-5 -3,-6 -2,-1 -5,-2 -8,-3 -10,-3 -25,-6 -42,-8 -18,-3 -40,-4 -66,-4 -28,0 -54,4 -77,10 -23,7 -43,17 -59,29 -17,13 -29,28 -38,45 -9,17 -13,36 -13,57 0,20 4,40 11,59 8,19 20,38 38,58 18,19 41,40 71,61l37 27c17,12 30,23 41,34 11,11 19,21 24,30 6,10 9,19 12,28 2,9 3,18 3,27 0,10 -2,20 -7,30 -4,10 -11,19 -20,27 -9,8 -20,15 -34,20 -14,5 -30,8 -48,8 -17,0 -33,-2 -49,-7 -15,-5 -29,-13 -41,-24 -12,-11 -21,-26 -27,-44 -2,-6 -4,-13 -5,-20 -1,-7 -2,-13 -2,-18 0,-3 0,-6 -1,-9 -1,-3 -3,-4 -7,-4 -3,0 -6,2 -7,5 -1,4 -2,8 -3,14 0,3 -1,8 -1,15 0,7 -1,14 -1,23 -1,9 -1,19 -1,29 0,10 -1,21 -1,31 0,5 0,10 1,13 1,3 2,6 5,7 2,2 5,4 10,5 17,7 36,12 55,15 19,3 41,4 64,4zm375 -227c0,24 0,47 0,68 0,21 -1,39 -1,55 -1,16 -1,30 -3,40 -1,11 -3,19 -7,26 -3,6 -9,10 -17,12 -4,1 -8,1 -13,2 -5,0 -10,1 -17,1 -5,0 -8,0 -10,2 -2,1 -3,2 -3,4 0,3 1,4 4,6 3,1 7,2 12,2 8,0 17,0 27,0 10,0 20,0 29,-1 10,0 19,0 27,-1 8,0 15,0 19,0 7,0 18,0 31,1 13,0 28,1 44,1 17,0 34,1 52,1 5,0 8,-1 11,-2 3,-1 4,-3 4,-6 0,-2 -1,-3 -3,-4 -2,-1 -5,-2 -10,-2 -4,0 -9,0 -14,0 -5,0 -10,-1 -15,-1 -5,0 -9,-1 -13,-1 -8,-1 -14,-3 -19,-6 -4,-3 -8,-7 -10,-12 -2,-5 -3,-11 -4,-18 -1,-11 -2,-24 -2,-41 0,-16 -1,-35 -1,-56 0,-21 0,-43 0,-68l0 -132c0,-23 0,-42 0,-58 0,-16 0,-29 0,-40 0,-11 0,-20 0,-27 0,-7 0,-13 0,-19 0,-5 1,-10 1,-15 1,-13 3,-23 7,-30 4,-7 12,-11 23,-13 5,-1 9,-1 13,-2 4,0 8,0 12,0 4,0 7,0 9,-1 2,-1 4,-3 4,-6 0,-2 -2,-4 -5,-5 -3,-1 -7,-1 -12,-1 -8,0 -16,0 -26,0 -9,0 -19,0 -28,1 -9,0 -18,0 -26,1 -8,0 -15,0 -20,0 -6,0 -13,0 -22,0 -9,0 -18,0 -28,-1 -10,0 -20,-1 -29,-1 -10,0 -18,0 -26,0 -7,0 -11,0 -15,1 -3,1 -5,2 -5,5 0,3 1,5 4,6 2,1 5,1 9,1 5,0 10,0 15,1 5,0 10,1 14,2 9,2 16,6 20,13 4,7 7,16 8,29 0,5 1,10 1,15 0,5 0,11 1,19 0,7 0,16 0,27 0,11 0,24 0,40 0,16 0,35 0,58l0 132zm476 0c0,23 0,45 0,65 0,20 -1,38 -1,54 -1,16 -1,29 -3,40 -1,11 -3,20 -7,28 -3,7 -9,12 -17,14 -4,1 -8,1 -13,2 -5,0 -10,1 -17,1 -5,0 -8,0 -10,2 -2,1 -3,2 -3,4 0,3 1,4 4,6 3,1 7,2 12,2 8,0 17,0 27,0 10,0 20,0 29,-1 10,0 19,0 27,-1 8,0 15,0 19,0 8,0 18,0 31,1 13,0 28,1 45,1 17,0 34,1 52,1 5,0 8,-1 11,-2 3,-1 4,-3 4,-6 0,-2 -1,-3 -3,-4 -2,-1 -5,-2 -10,-2 -4,0 -9,0 -14,0 -5,0 -10,-1 -15,-1 -5,0 -9,-1 -13,-1 -8,-1 -14,-3 -19,-7 -4,-4 -7,-8 -9,-14 -2,-6 -3,-12 -4,-19 -1,-11 -2,-24 -3,-40 -1,-16 -1,-34 -1,-55 0,-20 0,-42 0,-65l0 -307 103 2c24,1 43,3 57,7 14,4 24,9 30,15 6,6 9,13 9,19l1 8c0,5 1,9 2,12 1,2 4,3 7,3 2,0 4,-1 5,-3 1,-2 2,-5 2,-9 0,-5 0,-12 0,-20 0,-8 1,-16 1,-25 0,-9 1,-17 1,-25 0,-7 0,-13 0,-17 0,-6 0,-10 -1,-12 -1,-2 -3,-4 -5,-4 -2,0 -4,0 -8,1 -4,1 -8,2 -14,3 -6,1 -14,2 -23,2 -9,1 -20,1 -33,1l-322 0c-9,0 -18,0 -28,0 -9,0 -19,-1 -28,-1 -9,-1 -18,-1 -26,-2 -7,-1 -12,-2 -17,-3 -4,-1 -8,-3 -11,-4 -3,-1 -5,-2 -7,-2 -2,0 -4,1 -6,3 -1,2 -3,6 -4,11 0,1 -1,5 -2,10 -1,5 -3,12 -4,19 -2,7 -3,15 -5,23 -2,8 -3,15 -4,21 -1,6 -2,10 -2,13 0,4 0,7 1,9 1,2 3,3 6,3 2,0 4,-1 6,-2 1,-1 2,-4 3,-7 1,-3 2,-7 4,-11 2,-4 5,-9 9,-15 4,-5 9,-10 15,-13 6,-3 15,-5 25,-6 10,-1 23,-2 39,-3l121 -3 0 307zm643 26c2,0 4,0 5,1 1,1 2,2 3,4l65 154c2,5 2,8 0,11 -2,3 -4,5 -7,6 -4,0 -7,1 -9,2 -2,1 -3,2 -3,5 0,2 2,4 7,5 4,1 10,1 18,1 22,0 43,1 62,1 20,0 37,0 53,0 16,0 28,0 38,0 10,0 18,0 23,-1 5,0 9,-1 11,-2 2,-1 3,-3 3,-5 0,-2 -1,-4 -3,-5 -2,-1 -4,-1 -8,-1 -5,0 -10,0 -16,-1 -6,0 -12,-1 -18,-2 -4,-1 -9,-2 -14,-5 -5,-2 -11,-6 -17,-12 -6,-6 -12,-14 -19,-24 -7,-10 -14,-24 -22,-41 -7,-14 -14,-31 -23,-50 -9,-19 -18,-40 -28,-63 -10,-23 -20,-46 -31,-70 -11,-24 -21,-48 -31,-71 -10,-24 -20,-46 -30,-68 -10,-22 -18,-41 -26,-59 -8,-18 -15,-33 -20,-46 -6,-12 -10,-21 -12,-27 -4,-8 -7,-15 -10,-18 -3,-4 -6,-6 -10,-5 -4,0 -7,2 -11,7 -3,5 -7,12 -12,23l-204 463c-5,12 -11,24 -17,33 -6,10 -13,17 -21,23 -8,6 -19,10 -31,11 -3,0 -8,1 -12,1 -5,0 -9,0 -13,0 -3,0 -6,0 -7,1 -2,1 -2,2 -2,5 0,3 1,5 4,6 2,1 6,1 12,1 11,0 21,0 32,0 10,0 20,0 29,-1 9,0 17,0 23,-1 6,0 11,0 13,0 9,0 18,0 28,1 10,0 20,1 30,1 10,0 20,1 28,1 4,0 8,0 10,-1 2,-1 4,-3 4,-6 0,-2 -1,-4 -2,-5 -2,-1 -5,-1 -10,-1l-12 0c-12,0 -21,-2 -26,-6 -5,-4 -7,-10 -7,-17 0,-5 1,-11 3,-19 2,-8 5,-17 9,-26l44 -102c1,-2 2,-4 3,-5 1,-1 3,-1 5,-1l182 0zm-165 -37c-2,0 -3,0 -3,-1 -1,-1 -1,-2 0,-4l75 -183c0,-2 1,-3 2,-4 1,-1 2,-2 3,-2 1,0 2,1 3,2 1,1 1,3 1,4l73 184c0,1 0,2 0,3 -1,1 -2,1 -4,1l-150 0zm568 11c0,23 0,45 0,65 0,20 -1,38 -1,54 -1,16 -2,29 -3,40 -1,11 -3,20 -7,28 -3,7 -9,12 -17,14 -4,1 -8,1 -13,2 -5,0 -10,1 -17,1 -5,0 -8,0 -10,2 -2,1 -3,2 -3,4 0,3 1,4 4,6 3,1 7,2 12,2 8,0 17,0 27,0 10,0 20,0 29,-1 10,0 19,0 27,-1 8,0 15,0 19,0 8,0 18,0 31,1 13,0 28,1 45,1 17,0 34,1 52,1 5,0 8,-1 11,-2 3,-1 4,-3 4,-6 0,-2 -1,-3 -3,-4 -2,-1 -5,-2 -10,-2 -4,0 -9,0 -14,0 -5,0 -10,-1 -15,-1 -5,0 -9,-1 -13,-1 -8,-1 -14,-3 -19,-7 -4,-4 -7,-8 -9,-14 -2,-6 -3,-12 -4,-19 -1,-11 -2,-24 -3,-40 -1,-16 -1,-34 -1,-55 0,-20 0,-42 0,-65l0 -307 103 2c24,1 43,3 57,7 14,4 24,9 30,15 6,6 9,13 9,19l1 8c0,5 1,9 2,12 1,2 4,3 7,3 2,0 4,-1 5,-3 1,-2 2,-5 2,-9 0,-5 0,-12 0,-20 0,-8 1,-16 1,-25 0,-9 1,-17 1,-25 0,-7 0,-13 0,-17 0,-6 0,-10 -1,-12 -1,-2 -3,-4 -5,-4 -2,0 -4,0 -8,1 -4,1 -8,2 -14,3 -6,1 -14,2 -23,2 -9,1 -20,1 -33,1l-322 0c-9,0 -18,0 -28,0 -9,0 -19,-1 -28,-1 -9,-1 -18,-1 -26,-2 -7,-1 -12,-2 -17,-3 -4,-1 -8,-3 -11,-4 -3,-1 -5,-2 -7,-2 -2,0 -4,1 -6,3 -1,2 -3,6 -4,11 0,1 -1,5 -2,10 -1,5 -3,12 -4,19 -2,7 -3,15 -5,23 -2,8 -3,15 -4,21 -1,6 -2,10 -2,13 0,4 0,7 1,9 1,2 3,3 6,3 2,0 4,-1 6,-2 1,-1 2,-4 3,-7 1,-3 2,-7 4,-11 2,-4 5,-9 9,-15 4,-5 9,-10 15,-13 6,-3 15,-5 25,-6 10,-1 23,-2 39,-3l121 -3 0 307z"/>
     <path class="fil1" d="M6090 3899c0,23 0,45 0,65 0,20 -1,38 -1,54 -1,16 -1,29 -3,40 -1,7 -2,14 -4,20 -2,6 -4,11 -7,14 -3,4 -7,6 -13,7 -4,1 -8,1 -13,2 -5,0 -10,1 -17,1 -5,0 -8,0 -10,2 -2,1 -3,2 -3,4 0,3 1,4 4,6 3,1 7,2 12,2 8,0 17,0 27,-1 10,0 20,-1 29,-1 10,0 19,-1 27,-1 8,0 15,0 19,0 12,0 25,0 38,0 14,0 29,1 46,2 17,0 38,1 61,1 23,0 50,1 80,1 10,0 18,0 24,-1 6,-1 10,-2 13,-5 3,-3 5,-7 7,-14 1,-4 2,-10 3,-17 1,-7 2,-15 3,-24 1,-9 2,-17 3,-24 1,-8 1,-14 1,-18 0,-4 0,-7 -1,-9 -1,-3 -3,-4 -6,-4 -3,0 -5,1 -6,2 -1,2 -2,5 -3,9 -3,15 -7,27 -12,36 -6,9 -14,15 -24,20 -7,3 -15,5 -25,6 -9,1 -18,2 -27,2 -9,0 -17,0 -25,0 -21,0 -37,-1 -50,-2 -13,-2 -23,-5 -29,-10 -7,-4 -11,-11 -14,-19 -3,-8 -4,-19 -4,-32 0,-4 0,-10 0,-18 0,-7 0,-16 0,-25 0,-9 0,-18 0,-28 0,-9 0,-18 0,-26 0,-8 0,-14 0,-20l0 -59c0,-2 0,-4 1,-5 1,-1 2,-2 4,-2 4,0 10,0 18,0 8,0 17,0 27,0 10,0 20,0 29,0 10,0 18,0 26,1 7,0 13,0 16,1 10,1 18,3 24,6 6,3 11,6 14,10 3,4 6,9 7,14 1,5 2,10 2,14 0,5 1,9 1,13 0,2 1,3 1,5 1,1 3,2 6,2 2,0 4,-1 5,-2 1,-1 2,-3 2,-5 0,-2 0,-4 0,-6 0,-1 0,-4 0,-8 0,-4 1,-8 1,-13 0,-5 1,-10 1,-15 0,-5 1,-9 1,-13 1,-13 2,-23 3,-30 1,-7 2,-13 2,-17 1,-4 1,-6 1,-8 0,-2 -1,-4 -2,-5 -1,-1 -2,-1 -4,-1 -2,0 -4,1 -6,3 -2,2 -4,4 -7,7 -4,4 -9,6 -15,8 -6,2 -14,3 -24,3 -4,0 -10,0 -19,1 -9,0 -19,0 -30,0 -11,0 -22,0 -33,0 -11,0 -21,0 -30,0 -9,0 -15,0 -19,0 -2,0 -4,-1 -5,-2 -1,-1 -1,-3 -1,-6l0 -189c0,-3 0,-4 1,-6 1,-1 2,-2 4,-2 3,0 9,0 17,0 8,0 17,0 27,0 10,0 20,0 30,1 10,0 19,0 26,1 8,0 13,0 16,1 13,1 24,3 31,6 7,2 13,5 16,9 3,3 6,7 8,12 1,3 2,6 3,10 1,3 1,7 1,10 0,3 0,5 0,7 0,3 1,6 1,8 1,2 3,3 6,3 3,0 5,-1 6,-3 1,-2 2,-3 2,-5 0,-2 1,-6 1,-10 0,-5 1,-9 1,-15 0,-5 1,-10 1,-14 0,-4 1,-8 1,-10 1,-11 2,-20 3,-27 1,-6 2,-11 3,-15 1,-3 1,-6 1,-7 0,-2 0,-3 -1,-5 -1,-1 -2,-2 -4,-2 -2,0 -4,0 -7,1 -2,1 -4,1 -7,2 -3,1 -8,1 -14,2 -6,1 -13,1 -21,2 -3,0 -9,0 -19,0 -10,0 -21,0 -35,0 -14,0 -28,0 -44,0 -15,0 -30,0 -45,0 -14,0 -27,0 -38,0 -11,0 -18,0 -23,0 -6,0 -13,0 -22,0 -9,0 -19,-1 -29,-1 -10,0 -21,0 -32,0 -11,0 -23,0 -34,0 -6,0 -11,0 -14,1 -3,1 -4,3 -4,5 0,2 1,4 4,5 2,1 6,1 10,1 6,0 12,0 18,0 6,0 11,1 14,2 9,2 16,4 21,8 5,3 8,8 11,14 2,6 3,13 4,21 0,5 1,10 1,15 0,5 0,11 1,19 0,7 0,16 0,27 0,11 0,24 0,40 0,16 0,35 0,58l0 132zm753 26c2,0 4,0 5,1 1,1 2,2 3,4l65 154c2,5 2,8 0,11 -2,3 -4,5 -7,6 -4,0 -7,1 -9,2 -2,1 -3,2 -3,5 0,2 2,4 7,5 4,1 10,1 18,1 22,0 43,1 62,1 20,0 37,0 53,0 16,0 28,0 38,0 10,0 18,0 23,-1 5,0 9,-1 11,-2 2,-1 3,-3 3,-5 0,-2 -1,-4 -3,-5 -2,-1 -4,-1 -8,-1 -5,0 -10,0 -16,-1 -6,0 -12,-1 -18,-2 -4,-1 -9,-2 -14,-5 -5,-2 -11,-6 -17,-12 -6,-6 -12,-14 -19,-24 -7,-10 -14,-24 -22,-41 -7,-14 -14,-31 -23,-50 -9,-19 -18,-40 -28,-63 -10,-23 -20,-46 -31,-70 -11,-24 -21,-48 -31,-71 -10,-24 -20,-46 -30,-68 -10,-22 -18,-41 -26,-59 -8,-18 -15,-33 -20,-46 -6,-12 -10,-21 -12,-27 -4,-8 -7,-15 -10,-18 -3,-4 -6,-6 -10,-5 -4,0 -7,2 -11,7 -3,5 -7,12 -12,23l-204 463c-5,12 -11,24 -17,33 -6,10 -13,17 -21,23 -8,6 -19,10 -31,11 -3,0 -8,1 -12,1 -5,0 -9,0 -13,0 -3,0 -6,0 -7,1 -2,1 -2,2 -2,5 0,3 1,5 4,6 2,1 6,1 12,1 11,0 21,0 32,0 10,0 20,0 29,-1 9,0 17,0 23,-1 6,0 11,0 13,0 9,0 18,0 28,1 10,0 20,1 30,1 10,0 20,1 28,1 4,0 8,0 10,-1 2,-1 4,-3 4,-6 0,-2 -1,-4 -2,-5 -2,-1 -5,-1 -10,-1l-12 0c-12,0 -21,-2 -26,-6 -5,-4 -7,-10 -7,-17 0,-5 1,-11 3,-19 2,-8 5,-17 9,-26l44 -102c1,-2 2,-4 3,-5 1,-1 3,-1 5,-1l182 0zm-165 -37c-2,0 -3,0 -3,-1 -1,-1 -1,-2 0,-4l75 -183c0,-2 1,-3 2,-4 1,-1 2,-2 3,-2 1,0 2,1 3,2 1,1 1,3 1,4l73 184c0,1 0,2 0,3 -1,1 -2,1 -4,1l-150 0z"/>
    </g>
    <g>
     <path class="fil1" d="M159 4581c0,-19 0,-36 0,-49 0,-14 0,-25 0,-34 0,-9 0,-17 0,-23 0,-6 0,-11 0,-16 0,-4 0,-8 1,-12 0,-7 1,-13 3,-18 2,-5 4,-9 7,-12 3,-3 8,-5 14,-6 4,-1 7,-1 11,-1 4,0 7,0 9,0 1,0 2,0 3,-1 1,-1 1,-2 2,-3 0,-2 -1,-3 -2,-4 -2,-1 -4,-1 -7,-1 -4,0 -8,0 -13,0 -5,0 -11,0 -16,0 -6,0 -11,0 -16,1 -5,0 -9,0 -13,0 -3,0 -6,0 -6,0 -1,0 -4,0 -8,0 -5,0 -10,0 -17,-1 -7,0 -14,-1 -21,-1 -8,0 -15,0 -22,0 -3,0 -6,0 -7,1 -2,1 -2,2 -2,4 0,1 1,2 2,3 1,1 2,1 3,1 2,0 4,0 7,0 3,0 5,0 8,1 3,0 5,1 6,1 7,1 12,4 15,6 4,3 6,7 8,11 2,5 3,11 3,18 0,4 0,8 1,12 0,4 0,10 0,16 0,6 0,14 0,23 0,9 0,21 0,34 0,14 0,30 0,49l0 110c0,20 0,39 0,56 0,17 0,33 -1,46 0,13 -1,25 -2,33 -1,6 -2,12 -3,16 -1,5 -3,9 -5,12 -2,3 -5,5 -9,6 -3,1 -6,1 -9,2 -3,0 -6,1 -9,1 -2,0 -3,0 -4,1 -1,1 -1,2 -1,3 0,2 1,3 2,4 2,1 4,1 7,1 5,0 10,0 16,0 6,0 12,-1 18,-1 6,0 11,0 16,0 5,0 7,0 9,0 9,0 18,0 28,0 10,0 21,1 34,1 13,0 27,1 43,1 16,0 35,1 57,1 8,0 14,0 19,-1 5,0 8,-1 11,-2 2,-1 4,-3 5,-5 1,-2 2,-5 3,-9 1,-5 2,-10 3,-16 1,-6 2,-13 3,-19 1,-6 2,-12 2,-17 0,-5 1,-8 1,-10 0,-3 0,-6 -1,-7 0,-1 -1,-2 -3,-2 -2,0 -3,1 -4,2 -1,1 -1,3 -2,6 -1,4 -2,8 -3,13 -2,4 -3,9 -5,13 -2,4 -5,8 -7,12 -5,6 -11,10 -18,13 -7,3 -15,4 -25,5 -9,1 -19,1 -30,1 -15,0 -28,-1 -37,-1 -10,-1 -17,-3 -22,-5 -5,-2 -10,-5 -13,-8 -4,-4 -6,-11 -8,-22 -2,-11 -3,-26 -4,-46 -1,-20 -1,-45 -1,-75l0 -111zm468 91c0,23 1,43 4,60 3,17 6,32 11,45 5,13 10,24 17,34 6,10 13,18 21,25 11,10 22,18 35,25 12,6 24,10 36,13 12,3 22,5 32,5 9,1 17,1 22,1 12,0 25,-1 38,-3 14,-2 28,-7 42,-13 15,-7 29,-17 44,-30 12,-11 22,-24 29,-38 7,-14 13,-30 17,-46 4,-16 6,-33 8,-50 1,-17 2,-34 2,-51l0 -67c0,-19 0,-36 0,-49 0,-14 0,-25 0,-34 0,-9 0,-17 0,-23 0,-6 0,-11 0,-16 0,-4 0,-8 1,-12 0,-11 2,-19 6,-25 3,-6 9,-9 17,-11 4,-1 6,-1 9,-1 2,0 4,0 6,0 1,0 2,0 3,-1 1,-1 2,-2 2,-3 0,-2 -1,-3 -2,-4 -2,-1 -4,-1 -7,-1 -5,0 -10,0 -15,0 -5,0 -11,0 -16,1 -5,0 -9,0 -13,1 -4,0 -6,0 -7,0 -1,0 -4,0 -8,0 -4,0 -9,0 -15,-1 -6,0 -13,-1 -20,-1 -7,0 -14,0 -21,0 -3,0 -6,0 -7,1 -2,1 -2,2 -2,4 0,1 1,2 2,3 1,1 2,1 3,1 2,0 4,0 7,0 3,0 5,0 8,1 3,0 5,1 6,1 7,1 12,4 15,6 4,3 6,7 8,11 2,5 3,11 3,18 0,4 0,8 1,12 0,4 0,10 0,16 0,6 0,14 0,23 0,9 0,21 0,34 0,14 0,30 0,49l0 78c0,21 -1,42 -3,60 -2,19 -6,36 -11,51 -5,16 -12,29 -21,41 -7,9 -16,17 -26,24 -10,7 -21,12 -33,16 -12,4 -24,6 -36,6 -11,0 -22,-1 -32,-2 -10,-2 -20,-5 -30,-10 -10,-5 -19,-12 -29,-22 -7,-6 -13,-14 -18,-22 -6,-9 -10,-19 -14,-31 -4,-12 -7,-26 -9,-43 -2,-16 -3,-36 -3,-58l0 -87c0,-19 0,-36 0,-49 0,-14 0,-25 0,-34 0,-9 0,-17 0,-23 0,-6 0,-11 0,-16 0,-4 0,-8 1,-12 0,-11 2,-19 6,-25 3,-6 9,-9 17,-10 4,-1 6,-1 9,-1 2,0 4,0 6,0 1,0 2,0 3,-1 1,-1 2,-2 2,-3 0,-2 -1,-3 -2,-4 -2,-1 -4,-1 -7,-1 -5,0 -10,0 -16,0 -6,0 -12,0 -18,1 -6,0 -11,0 -16,1 -5,0 -8,0 -9,0 -2,0 -5,0 -9,0 -5,0 -10,0 -17,-1 -7,0 -14,-1 -21,-1 -7,0 -15,0 -22,0 -3,0 -6,0 -7,1 -2,1 -2,2 -2,4 0,1 1,2 2,3 1,1 2,1 3,1 2,0 4,0 7,0 3,0 5,0 8,1 3,0 5,1 6,1 7,1 12,4 15,6 4,3 6,7 8,11 2,5 3,11 3,18 0,4 0,8 1,12 0,4 0,10 0,16 0,6 0,14 0,23 0,9 0,21 0,34 0,14 0,30 0,49l0 91zm935 208c10,0 20,0 30,-1 10,-1 20,-1 30,-3 10,-1 19,-3 27,-4 8,-2 16,-4 22,-6 4,-2 6,-3 8,-4 2,-1 3,-3 4,-5 1,-2 2,-5 3,-9 1,-4 3,-10 4,-16 1,-6 2,-13 4,-20 1,-7 2,-14 3,-20 1,-6 2,-12 2,-16 0,-4 1,-7 1,-8 0,-3 0,-5 -1,-7 -1,-2 -2,-3 -3,-3 -2,0 -3,1 -4,2 -1,1 -2,4 -2,7 0,3 -1,7 -2,11 -1,4 -3,9 -5,14 -2,5 -4,10 -7,15 -3,5 -5,9 -9,12 -8,8 -17,15 -28,19 -11,5 -22,8 -35,9 -13,2 -27,2 -42,2 -26,0 -50,-4 -72,-12 -22,-8 -42,-19 -60,-34 -18,-14 -33,-31 -46,-50 -13,-19 -23,-40 -29,-62 -7,-22 -10,-45 -10,-69 0,-21 1,-41 4,-61 3,-19 8,-37 16,-54 8,-17 19,-33 34,-47 7,-7 16,-14 28,-21 11,-7 26,-13 44,-17 18,-5 40,-7 67,-7 18,0 35,2 50,5 16,3 30,8 42,13 12,5 22,11 29,18 5,5 10,10 14,17 4,7 7,14 9,22 2,8 3,16 3,24 0,4 0,8 1,10 1,2 2,3 4,3 2,0 3,-1 4,-3 1,-2 1,-6 2,-10 0,-2 0,-6 0,-11 0,-5 0,-10 0,-17 0,-6 0,-13 0,-19 0,-6 0,-12 1,-17 0,-7 1,-13 1,-18 0,-4 1,-8 1,-11 0,-3 0,-5 0,-6 0,-2 0,-3 -1,-5 -1,-1 -3,-2 -6,-2 -10,-1 -19,-2 -29,-4 -10,-2 -21,-4 -32,-6 -10,-2 -20,-3 -30,-4 -10,-1 -20,-2 -30,-2 -10,-1 -19,-1 -27,-1 -31,0 -58,3 -81,9 -23,6 -43,14 -60,24 -17,10 -31,21 -43,34 -13,14 -24,29 -33,44 -9,15 -16,31 -21,46 -5,15 -9,30 -11,43 -2,14 -3,26 -3,36 0,15 1,30 3,46 2,16 6,32 11,48 5,16 13,32 22,47 10,15 22,30 36,43 16,15 33,27 53,37 19,10 41,18 65,23 24,5 51,8 81,8zm529 -299c0,-19 0,-36 0,-49 0,-14 0,-25 0,-34 0,-9 0,-17 0,-23 0,-6 0,-11 0,-16 0,-4 0,-8 1,-12 0,-11 2,-19 6,-25 3,-6 9,-9 17,-11 4,-1 6,-1 9,-1 2,0 4,0 6,0 1,0 2,0 3,-1 1,-1 1,-2 2,-3 0,-2 -1,-3 -2,-4 -2,-1 -4,-1 -7,-1 -5,0 -10,0 -16,0 -6,0 -12,0 -19,1 -6,0 -12,0 -16,1 -4,0 -7,0 -8,0 -1,0 -4,0 -8,0 -5,0 -10,0 -16,-1 -6,0 -13,-1 -19,-1 -7,0 -12,0 -17,0 -3,0 -6,0 -7,1 -2,1 -2,2 -2,4 0,1 1,2 2,3 1,1 2,1 3,1 2,0 5,0 8,1 3,0 7,1 10,2 7,1 12,5 15,11 3,6 5,14 6,24 0,4 0,8 1,12 0,4 0,10 0,16 0,6 0,14 0,23 0,9 0,21 0,34 0,14 0,30 0,49l0 110c0,20 0,39 0,56 0,17 0,32 -1,46 0,13 -1,25 -2,33 -1,6 -2,12 -3,16 -1,5 -3,9 -5,12 -2,3 -5,5 -9,6 -3,1 -6,1 -9,2 -3,0 -6,1 -9,1 -2,0 -3,0 -4,1 -1,1 -1,2 -1,3 0,2 1,3 2,4 2,1 4,1 7,1 5,0 10,0 16,0 6,0 13,0 19,-1 6,0 12,0 16,-1 4,0 7,0 8,0 1,0 4,0 8,0 5,0 10,0 18,1 7,0 15,0 23,1 8,0 17,0 25,0 3,0 6,0 7,-1 2,-1 2,-2 2,-4 0,-1 0,-2 -1,-3 -1,-1 -2,-1 -4,-1 -2,0 -4,0 -8,0 -3,0 -7,-1 -10,-1 -3,0 -7,-1 -10,-1 -6,-1 -11,-3 -14,-6 -3,-3 -5,-7 -7,-12 -1,-5 -2,-10 -3,-16 -1,-9 -2,-20 -2,-33 0,-13 -1,-29 -1,-46 0,-17 0,-36 0,-56l0 -110zm361 222c-4,10 -7,20 -12,28 -4,8 -10,15 -16,20 -6,5 -14,9 -23,10 -3,0 -6,1 -9,1 -3,0 -6,0 -9,0 -2,0 -3,0 -4,1 -1,1 -2,2 -2,3 0,2 1,3 3,4 2,1 5,1 9,1 7,0 14,0 22,0 7,0 14,0 21,-1 6,0 12,0 16,-1 5,0 8,0 9,0 2,0 4,0 8,0 4,0 8,0 12,1 5,0 9,0 14,1 5,0 9,0 13,0 3,0 5,0 7,-1 2,-1 3,-2 3,-4 0,-1 -1,-2 -1,-3 -1,-1 -3,-1 -5,-1l-6 0c-4,0 -7,-1 -10,-2 -4,-1 -6,-3 -9,-6 -2,-3 -4,-6 -4,-10 0,-6 1,-12 2,-19 1,-7 4,-15 6,-23l36 -110c1,-2 1,-3 2,-4 1,-1 2,-1 4,-1l130 0c2,0 3,0 3,1 1,1 1,2 2,3l56 153c2,5 2,9 1,12 -1,3 -3,4 -5,5 -1,0 -2,1 -3,1 -1,1 -1,2 -1,3 0,2 2,3 5,3 3,1 8,1 13,1 11,0 21,1 31,1 10,0 20,0 29,0 9,0 16,0 22,0 6,0 10,0 13,0 3,0 6,0 9,-1 2,-1 3,-2 4,-4 0,-2 -1,-2 -2,-3 -1,-1 -3,-1 -4,-1 -3,0 -7,0 -11,-1 -4,-1 -9,-1 -13,-3 -3,-1 -7,-2 -10,-5 -4,-2 -8,-6 -12,-11 -4,-5 -9,-12 -14,-20 -5,-9 -10,-20 -15,-34 -5,-12 -10,-26 -16,-42 -6,-16 -13,-34 -20,-53 -7,-19 -14,-39 -22,-59 -8,-20 -15,-40 -22,-60 -7,-20 -14,-39 -21,-57 -7,-18 -13,-34 -18,-49 -5,-15 -10,-27 -13,-36 -4,-10 -6,-16 -7,-19 -2,-6 -4,-11 -6,-14 -2,-3 -3,-5 -4,-6 -1,-1 -2,-2 -3,-2 -1,0 -2,1 -3,2 -1,1 -3,4 -4,7 -2,4 -3,9 -6,15l-137 387zm84 -138c-1,0 -2,0 -2,-1 0,-1 0,-2 0,-3l53 -168c3,-9 6,-9 9,0l57 168c0,1 0,2 0,3 0,1 -1,1 -3,1l-115 0zm592 -177c5,6 13,15 23,26 10,12 23,26 37,42 14,16 30,34 46,53 17,19 34,38 51,58 13,14 26,29 40,44 14,15 28,30 41,44 13,14 25,27 36,39 11,12 20,21 27,28 7,7 11,12 13,13 11,11 19,19 25,25 6,6 10,10 13,12 3,2 5,3 6,3 1,0 2,0 3,-1 1,-1 1,-3 2,-6 0,-3 1,-7 1,-13 0,-6 0,-14 0,-24l1 -365c0,-12 0,-22 1,-30 1,-8 3,-13 6,-17 3,-4 8,-7 15,-8 4,-1 7,-1 9,-2 2,0 4,0 6,0 2,0 4,0 5,-1 1,-1 2,-2 2,-3 0,-2 -1,-3 -3,-4 -2,-1 -5,-1 -8,-1 -8,0 -16,0 -23,1 -7,0 -13,1 -18,1 -5,0 -8,1 -11,1 -2,0 -7,0 -13,-1 -6,0 -14,-1 -23,-1 -9,0 -18,-1 -27,-1 -4,0 -7,0 -9,1 -2,1 -3,2 -3,4 0,1 0,2 1,3 1,1 2,1 4,1 2,0 4,0 7,0 3,0 7,1 11,1 4,1 8,1 11,2 6,2 11,4 14,9 3,4 6,10 7,18 1,8 2,19 2,32l7 316c-5,-5 -12,-14 -22,-25 -10,-11 -22,-24 -35,-39 -13,-15 -27,-31 -42,-48 -15,-17 -30,-34 -45,-50 -19,-21 -37,-41 -55,-61 -18,-20 -35,-38 -50,-56 -16,-17 -30,-33 -42,-47 -12,-14 -22,-25 -30,-34 -8,-9 -13,-14 -14,-16 -2,-2 -4,-5 -7,-8 -3,-3 -5,-6 -8,-8 -3,-2 -5,-4 -6,-4 -2,0 -3,1 -4,3 -1,2 -2,5 -2,10 0,5 -1,11 -1,19l-1 357c0,19 0,34 -1,45 -1,11 -3,19 -5,24 -3,5 -6,9 -11,10 -5,2 -9,2 -14,3 -5,1 -8,1 -11,1 -2,0 -3,0 -4,1 -1,1 -1,2 -1,3 0,2 1,4 3,4 2,1 4,1 7,1 9,0 18,0 26,-1 8,0 15,-1 21,-1 6,0 9,-1 11,-1 2,0 6,0 11,1 6,0 13,1 22,1 9,0 19,1 31,1 4,0 6,0 8,-1 2,-1 3,-2 3,-4 0,-1 0,-2 -1,-3 -1,-1 -2,-1 -4,-1 -2,0 -4,0 -8,0 -3,0 -7,-1 -11,-1 -4,-1 -8,-1 -12,-2 -5,-2 -10,-5 -13,-10 -3,-5 -6,-12 -7,-22 -2,-10 -3,-23 -3,-40l-8 -298z"/>
     <path class="fil1" d="M4279 4691c0,20 0,39 0,56 0,17 0,33 -1,46 0,13 -1,25 -2,33 -1,6 -2,12 -3,16 -1,5 -3,9 -5,12 -2,3 -5,5 -9,6 -3,1 -6,1 -9,2 -3,0 -6,1 -9,1 -2,0 -3,0 -4,1 -1,1 -1,2 -1,3 0,2 1,3 2,4 2,1 4,1 7,1 5,0 10,0 16,-1 6,0 12,-1 19,-1 6,0 12,-1 16,-1 4,0 7,0 8,0 1,0 3,0 7,0 4,0 8,0 13,1 5,0 11,1 17,1 6,0 12,0 18,1 6,0 11,1 15,1 5,0 8,0 10,0 21,0 39,-3 56,-8 16,-5 31,-12 43,-21 12,-9 23,-19 31,-31 8,-12 14,-24 18,-37 4,-13 6,-26 6,-40 0,-15 -2,-28 -7,-40 -4,-12 -10,-23 -17,-33 -7,-10 -15,-19 -25,-26 -9,-8 -18,-14 -28,-19 -10,-5 -19,-9 -28,-12 7,-8 14,-15 21,-23 7,-8 13,-16 18,-25 5,-9 10,-18 13,-29 3,-10 5,-22 5,-35 0,-6 -1,-14 -3,-22 -2,-8 -6,-16 -11,-25 -5,-8 -12,-16 -21,-23 -9,-7 -21,-13 -35,-17 -14,-4 -31,-7 -51,-7 -14,0 -27,0 -38,1 -11,1 -21,1 -28,1 -1,0 -4,0 -8,0 -5,0 -10,0 -17,-1 -7,0 -14,-1 -21,-1 -8,0 -15,0 -22,0 -3,0 -6,0 -7,1 -2,1 -2,2 -2,4 0,1 1,2 2,3 1,1 2,1 3,1 2,0 4,0 7,0 3,0 5,0 8,1 3,0 5,1 6,1 7,1 12,4 15,6 4,3 6,7 8,11 2,5 3,11 3,18 0,4 0,8 1,12 0,4 0,10 0,16 0,6 0,14 0,23 0,9 0,21 0,34 0,14 0,30 0,49l0 110zm48 -263c0,-2 1,-3 2,-4 1,-1 3,-2 6,-2 3,-1 7,-1 10,-2 4,0 7,-1 10,-1 3,0 6,0 8,0 15,0 27,3 38,9 10,6 19,14 25,25 6,10 11,22 14,34 3,13 5,25 4,39 0,13 -2,25 -6,35 -4,11 -9,20 -16,28 -3,4 -6,7 -9,9 -3,2 -7,4 -10,5 -4,1 -9,2 -14,2 -6,0 -13,0 -21,0 -11,0 -20,0 -25,-1 -6,-1 -10,-1 -11,-1 -2,-1 -3,-1 -3,-2 -1,-1 -1,-2 -1,-5l0 -167zm0 197c0,-2 0,-3 1,-3 1,-1 2,-1 3,-1 2,0 6,0 10,0 4,0 9,0 14,0 5,0 9,0 14,0 4,0 7,0 9,1 5,1 10,1 15,2 5,1 11,3 16,5 6,2 12,6 19,11 12,8 21,18 29,28 8,10 14,21 18,32 4,11 7,22 9,33 2,11 3,21 3,31 0,14 -2,26 -6,36 -4,10 -9,19 -15,25 -6,7 -13,12 -21,16 -8,4 -15,7 -23,9 -8,2 -15,2 -21,2 -4,0 -9,0 -15,-1 -6,0 -13,-1 -20,-3 -7,-1 -13,-3 -19,-6 -6,-3 -11,-6 -13,-10 -3,-4 -4,-9 -5,-15 -1,-6 -2,-14 -2,-24 0,-2 0,-6 0,-13 0,-7 0,-15 0,-25 0,-10 0,-20 0,-32 0,-11 0,-23 0,-34 0,-11 0,-22 0,-31l0 -35zm613 -44c0,-19 0,-36 0,-49 0,-14 0,-25 0,-34 0,-9 0,-17 0,-23 0,-6 0,-11 0,-16 0,-4 0,-8 1,-12 0,-7 1,-13 3,-18 2,-5 4,-9 7,-12 3,-3 8,-5 14,-6 4,-1 7,-1 11,-1 4,0 7,0 9,0 1,0 2,0 3,-1 1,-1 1,-2 2,-3 0,-2 -1,-3 -2,-4 -2,-1 -4,-1 -7,-1 -4,0 -8,0 -13,0 -5,0 -11,0 -16,0 -6,0 -11,0 -16,1 -5,0 -9,0 -13,0 -3,0 -6,0 -6,0 -1,0 -4,0 -8,0 -5,0 -10,0 -17,-1 -7,0 -14,-1 -21,-1 -8,0 -15,0 -22,0 -3,0 -6,0 -7,1 -2,1 -2,2 -2,4 0,1 1,2 2,3 1,1 2,1 3,1 2,0 4,0 7,0 3,0 5,0 8,1 3,0 5,1 6,1 7,1 12,4 15,6 4,3 6,7 8,11 2,5 3,11 3,18 0,4 0,8 1,12 0,4 0,10 0,16 0,6 0,14 0,23 0,9 0,21 0,34 0,14 0,30 0,49l0 110c0,20 0,39 0,56 0,17 0,33 -1,46 0,13 -1,25 -2,33 -1,6 -2,12 -3,16 -1,5 -3,9 -5,12 -2,3 -5,5 -9,6 -3,1 -6,1 -9,2 -3,0 -6,1 -9,1 -2,0 -3,0 -4,1 -1,1 -1,2 -1,3 0,2 1,3 2,4 2,1 4,1 7,1 5,0 10,0 16,0 6,0 12,-1 18,-1 6,0 11,0 16,0 5,0 7,0 9,0 9,0 18,0 28,0 10,0 21,1 34,1 13,0 27,1 43,1 16,0 35,1 57,1 8,0 14,0 19,-1 5,0 8,-1 11,-2 2,-1 4,-3 5,-5 1,-2 2,-5 3,-9 1,-5 2,-10 3,-16 1,-6 2,-13 3,-19 1,-6 2,-12 2,-17 0,-5 1,-8 1,-10 0,-3 0,-6 -1,-7 0,-1 -1,-2 -3,-2 -2,0 -3,1 -4,2 -1,1 -1,3 -2,6 -1,4 -2,8 -3,13 -2,4 -3,9 -5,13 -2,4 -5,8 -7,12 -5,6 -11,10 -18,13 -7,3 -15,4 -25,5 -9,1 -19,1 -30,1 -15,0 -28,-1 -38,-1 -10,-1 -17,-3 -22,-5 -5,-2 -10,-5 -13,-8 -4,-4 -6,-11 -8,-22 -2,-11 -3,-26 -4,-46 -1,-20 -1,-45 -1,-75l0 -111zm452 222c-4,10 -7,20 -12,28 -4,8 -10,15 -16,20 -6,5 -14,9 -23,10 -3,0 -6,1 -9,1 -3,0 -6,0 -9,0 -2,0 -3,0 -4,1 -1,1 -2,2 -2,3 0,2 1,3 3,4 2,1 5,1 9,1 7,0 14,0 22,0 7,0 14,0 21,-1 6,0 12,0 16,-1 5,0 8,0 9,0 2,0 4,0 8,0 4,0 8,0 12,1 5,0 9,0 14,1 5,0 9,0 13,0 3,0 5,0 7,-1 2,-1 3,-2 3,-4 0,-1 -1,-2 -1,-3 -1,-1 -3,-1 -5,-1l-6 0c-4,0 -7,-1 -10,-2 -4,-1 -6,-3 -9,-6 -2,-3 -4,-6 -4,-10 0,-6 1,-12 2,-19 1,-7 4,-15 6,-23l36 -110c1,-2 1,-3 2,-4 1,-1 2,-1 4,-1l130 0c2,0 3,0 3,1 1,1 1,2 2,3l56 153c2,5 2,9 1,12 -1,3 -3,4 -5,5 -1,0 -2,1 -3,1 -1,1 -1,2 -1,3 0,2 2,3 5,3 3,1 8,1 13,1 11,0 21,1 31,1 10,0 20,0 29,0 9,0 16,0 22,0 6,0 10,0 13,0 3,0 6,0 9,-1 2,-1 3,-2 4,-4 0,-2 -1,-2 -2,-3 -1,-1 -3,-1 -4,-1 -3,0 -7,0 -11,-1 -4,-1 -9,-1 -13,-3 -3,-1 -7,-2 -10,-5 -4,-2 -8,-6 -12,-11 -4,-5 -9,-12 -14,-20 -5,-9 -10,-20 -15,-34 -5,-12 -10,-26 -16,-42 -6,-16 -13,-34 -20,-53 -7,-19 -14,-39 -22,-59 -8,-20 -15,-40 -22,-60 -7,-20 -14,-39 -21,-57 -7,-18 -13,-34 -18,-49 -5,-15 -10,-27 -13,-36 -4,-10 -6,-16 -7,-19 -2,-6 -4,-11 -6,-14 -2,-3 -3,-5 -4,-6 -1,-1 -2,-2 -3,-2 -1,0 -2,1 -3,2 -1,1 -3,4 -4,7 -2,4 -3,9 -6,15l-137 387zm84 -138c-1,0 -2,0 -2,-1 0,-1 0,-2 0,-3l53 -168c3,-9 6,-9 9,0l57 168c0,1 0,2 0,3 0,1 -1,1 -3,1l-115 0zm870 153c0,5 -1,10 -3,13 -2,4 -5,6 -9,9 -5,3 -12,6 -20,8 -8,2 -16,3 -25,4 -9,1 -17,1 -24,1 -19,0 -37,-2 -55,-7 -18,-4 -36,-12 -53,-21 -17,-10 -34,-23 -50,-39 -4,-4 -9,-10 -15,-18 -6,-7 -11,-17 -17,-27 -6,-10 -11,-22 -16,-35 -5,-13 -9,-28 -12,-43 -3,-15 -5,-32 -5,-50 0,-24 3,-47 8,-67 5,-20 12,-38 21,-54 9,-15 19,-28 31,-38 11,-9 23,-17 34,-22 11,-6 22,-10 33,-12 11,-3 22,-5 32,-5 10,-1 20,-1 30,-1 19,0 37,2 53,5 16,3 30,7 42,12 12,5 22,10 30,16 8,6 14,12 18,18 3,5 5,10 7,15 2,5 3,10 4,15 1,4 1,8 2,11 0,3 1,5 1,7 1,2 2,3 3,3 2,0 4,-1 4,-3 1,-2 1,-5 1,-10 0,-15 0,-28 1,-39 0,-10 1,-19 1,-25 1,-7 1,-12 2,-15 0,-4 1,-7 1,-9 0,-1 0,-2 -1,-4 -1,-1 -3,-2 -6,-2 -5,0 -11,-1 -17,-1 -6,-1 -12,-1 -17,-2 -6,-1 -11,-2 -15,-3 -3,-1 -8,-2 -14,-3 -6,-1 -14,-2 -22,-4 -9,-1 -18,-2 -27,-3 -10,-1 -19,-1 -29,-1 -16,0 -32,1 -50,2 -18,2 -36,6 -55,11 -19,6 -37,14 -55,26 -14,9 -26,20 -38,33 -12,13 -23,28 -32,45 -9,17 -17,36 -22,58 -5,21 -8,44 -8,69 0,20 2,38 6,56 4,18 9,34 16,50 7,15 14,29 23,41 9,12 17,22 27,31 17,15 34,27 53,36 18,9 36,16 54,20 18,4 35,7 50,9 16,1 29,2 41,2 9,0 19,0 29,-1 11,-1 22,-2 33,-5 11,-2 23,-5 34,-9 11,-4 22,-8 31,-13 2,-1 3,-2 4,-3 1,-1 2,-3 2,-5 0,-2 1,-5 1,-9 0,-4 0,-10 0,-17l0 -70c0,-9 0,-17 0,-24 0,-7 0,-14 0,-21 0,-7 0,-13 1,-20 0,-11 2,-19 6,-25 3,-6 9,-9 17,-11 4,-1 6,-1 9,-1 2,0 4,0 6,0 1,0 2,0 3,-1 1,-1 2,-2 2,-3 0,-2 -1,-3 -2,-4 -2,-1 -4,-1 -7,-1 -5,0 -10,0 -16,0 -6,0 -13,0 -19,1 -6,0 -12,0 -16,1 -4,0 -7,0 -8,0 -1,0 -4,0 -8,0 -5,0 -10,0 -17,-1 -7,0 -14,0 -21,-1 -8,0 -15,0 -22,0 -3,0 -6,0 -7,1 -2,1 -2,2 -2,4 0,1 1,2 2,3 1,1 2,1 3,1 2,0 4,0 7,0 3,0 5,0 8,1 3,0 5,1 6,1 6,2 11,4 14,6 4,2 6,6 8,10 2,4 3,10 4,18 1,8 1,18 1,30l0 106zm379 -16c-4,10 -7,20 -12,28 -4,8 -10,15 -16,20 -6,5 -14,9 -23,10 -3,0 -6,1 -9,1 -3,0 -6,0 -9,0 -2,0 -3,0 -4,1 -1,1 -2,2 -2,3 0,2 1,3 3,4 2,1 5,1 9,1 7,0 14,0 22,0 7,0 14,0 21,-1 6,0 12,0 16,-1 5,0 8,0 9,0 2,0 4,0 8,0 4,0 8,0 12,1 5,0 9,0 14,1 5,0 9,0 13,0 3,0 5,0 7,-1 2,-1 3,-2 3,-4 0,-1 -1,-2 -1,-3 -1,-1 -3,-1 -5,-1l-6 0c-4,0 -7,-1 -10,-2 -4,-1 -6,-3 -9,-6 -2,-3 -4,-6 -4,-10 0,-6 1,-12 2,-19 1,-7 4,-15 6,-23l36 -110c1,-2 1,-3 2,-4 1,-1 2,-1 4,-1l130 0c2,0 3,0 3,1 1,1 1,2 2,3l56 153c2,5 2,9 1,12 -1,3 -3,4 -5,5 -1,0 -2,1 -3,1 -1,1 -1,2 -1,3 0,2 2,3 5,3 3,1 8,1 13,1 11,0 21,1 31,1 10,0 20,0 29,0 9,0 16,0 22,0 6,0 10,0 13,0 3,0 6,0 9,-1 2,-1 3,-2 4,-4 0,-2 -1,-2 -2,-3 -1,-1 -3,-1 -4,-1 -3,0 -7,0 -11,-1 -4,-1 -9,-1 -13,-3 -3,-1 -7,-2 -10,-5 -4,-2 -8,-6 -12,-11 -4,-5 -9,-12 -14,-20 -5,-9 -10,-20 -15,-34 -5,-12 -10,-26 -16,-42 -6,-16 -13,-34 -20,-53 -7,-19 -14,-39 -22,-59 -8,-20 -15,-40 -22,-60 -7,-20 -14,-39 -21,-57 -7,-18 -13,-34 -18,-49 -5,-15 -10,-27 -13,-36 -4,-10 -6,-16 -7,-19 -2,-6 -4,-11 -6,-14 -2,-3 -3,-5 -4,-6 -1,-1 -2,-2 -3,-2 -1,0 -2,1 -3,2 -1,1 -3,4 -4,7 -2,4 -3,9 -6,15l-137 387zm84 -138c-1,0 -2,0 -2,-1 0,-1 0,-2 0,-3l53 -168c3,-9 6,-9 9,0l57 168c0,1 0,2 0,3 0,1 -1,1 -3,1l-115 0z"/>
    </g>
    <g>
     <path class="fil1" d="M4731 5494c0,24 0,47 0,68 0,21 -1,39 -1,55 -1,16 -1,30 -3,40 -1,11 -3,19 -6,26 -3,6 -8,10 -16,12 -3,1 -7,1 -12,2 -5,0 -10,1 -16,1 -4,0 -8,0 -10,2 -2,1 -3,2 -3,4 0,3 1,4 4,6 3,1 6,2 11,2 8,0 16,0 26,0 9,0 18,0 28,-1 9,0 18,0 25,-1 8,0 14,0 18,0 7,0 17,0 29,1 12,0 26,1 42,1 16,0 32,1 49,1 4,0 8,-1 10,-2 3,-1 4,-3 4,-6 0,-2 -1,-3 -3,-4 -2,-1 -5,-2 -9,-2 -4,0 -8,0 -13,0 -5,0 -9,-1 -14,-1 -5,0 -9,-1 -12,-1 -8,-1 -13,-3 -18,-6 -4,-3 -7,-7 -9,-12 -2,-5 -3,-11 -4,-18 -1,-11 -2,-24 -2,-41 0,-16 -1,-35 -1,-56 0,-21 0,-43 0,-68l0 -132c0,-23 0,-42 0,-58 0,-16 0,-29 0,-40 0,-11 0,-20 0,-27 0,-7 0,-13 0,-19 0,-5 1,-10 1,-15 1,-13 3,-23 7,-30 4,-7 11,-11 21,-13 4,-1 9,-1 12,-2 4,0 7,0 11,0 4,0 7,0 9,-1 2,-1 3,-3 3,-6 0,-2 -2,-4 -4,-5 -3,-1 -7,-1 -12,-1 -7,0 -15,0 -24,0 -9,0 -17,0 -26,1 -9,0 -17,0 -24,1 -8,0 -14,0 -19,0 -6,0 -13,0 -21,0 -8,0 -17,0 -26,-1 -9,0 -19,-1 -28,-1 -9,0 -17,0 -25,0 -6,0 -11,0 -14,1 -3,1 -5,3 -5,5 0,3 1,5 3,6 2,1 5,1 9,1 5,0 9,0 14,1 5,0 9,1 14,2 8,2 15,6 19,13 4,7 7,16 7,29 0,5 1,10 1,15 0,5 0,11 1,19 0,7 0,16 0,27 0,11 0,24 0,40 0,16 0,35 0,58l0 132z"/>
     <path class="fil1" d="M4234 5494c0,23 0,45 0,65 0,20 -1,38 -1,54 -1,16 -1,29 -3,40 -1,7 -2,14 -4,20 -2,6 -4,11 -7,14 -3,4 -7,6 -12,7 -3,1 -7,1 -12,2 -5,0 -10,1 -16,1 -4,0 -8,0 -10,2 -2,1 -3,2 -3,4 0,3 1,4 4,6 3,1 6,2 11,2 8,0 16,0 26,-1 9,0 18,-1 27,-1 9,0 18,-1 26,-1 8,0 14,0 18,0 4,0 9,0 15,0 6,0 13,0 20,1 7,0 15,1 23,1 8,0 15,0 22,1 7,0 13,1 19,1 5,0 10,0 13,0 28,0 53,-3 75,-9 22,-6 41,-14 57,-25 16,-11 30,-23 40,-37 11,-14 19,-29 24,-44 5,-16 8,-32 8,-48 0,-17 -3,-34 -8,-48 -6,-15 -13,-28 -23,-40 -9,-12 -20,-23 -32,-32 -12,-9 -25,-18 -38,-24 -13,-7 -26,-12 -39,-16 14,-11 27,-22 39,-35 12,-12 21,-27 28,-42 7,-16 11,-34 11,-54 0,-8 -1,-17 -4,-27 -3,-10 -7,-20 -14,-30 -7,-10 -16,-19 -28,-28 -12,-8 -28,-15 -47,-20 -19,-5 -43,-8 -70,-8 -13,0 -27,0 -42,1 -15,1 -32,1 -51,1 -4,0 -10,0 -17,0 -7,0 -16,0 -26,-1 -10,0 -20,-1 -30,-1 -11,0 -21,0 -31,0 -6,0 -10,0 -13,1 -3,1 -4,3 -4,5 0,2 1,4 3,5 2,1 5,1 10,1 6,0 11,0 17,0 6,0 10,1 13,2 8,2 15,4 19,8 5,3 8,8 10,14 2,6 3,13 4,21 0,5 1,10 1,15 0,5 0,11 1,19 0,7 0,16 0,27 0,11 0,24 0,40 0,16 0,35 0,58l0 132zm92 -304c0,-4 0,-7 1,-9 1,-2 3,-3 5,-4 4,-1 8,-1 11,-1 4,0 9,0 14,0 13,0 25,2 35,7 10,5 19,11 27,19 8,8 14,17 19,27 5,10 9,20 11,31 2,11 4,21 4,31 0,18 -3,34 -8,47 -5,13 -13,24 -23,32 -6,5 -14,9 -23,11 -9,2 -20,3 -32,3 -9,0 -16,0 -22,-1 -6,0 -11,-1 -14,-2 -2,0 -3,-1 -4,-2 -1,-1 -2,-3 -2,-6l0 -185zm175 393c0,15 -2,29 -6,40 -4,11 -10,20 -16,27 -7,7 -14,13 -22,17 -8,4 -16,7 -25,9 -8,2 -16,3 -23,2 -9,0 -18,0 -27,-1 -9,-1 -19,-4 -29,-8 -6,-2 -11,-5 -15,-8 -4,-3 -6,-7 -8,-13 -2,-5 -3,-12 -3,-20 -1,-8 -1,-18 -1,-31l0 -177c0,-2 0,-3 1,-4 1,-1 2,-1 3,-1 5,0 11,0 16,0 5,0 11,0 17,1 10,0 19,1 26,3 8,1 14,3 20,6 6,2 12,6 17,9 15,10 27,21 36,33 10,12 17,25 23,39 6,13 10,27 12,40 2,13 4,26 3,37z"/>
     <path class="fil1" d="M3920 5494c0,24 0,47 0,68 0,21 -1,39 -1,55 -1,16 -1,30 -3,40 -1,11 -3,19 -6,26 -3,6 -8,10 -16,12 -3,1 -7,1 -12,2 -5,0 -10,1 -16,1 -4,0 -8,0 -10,2 -2,1 -3,2 -3,4 0,3 1,4 4,6 3,1 6,2 11,2 8,0 16,0 26,0 9,0 18,0 28,-1 9,0 18,0 25,-1 8,0 14,0 18,0 7,0 17,0 29,1 12,0 26,1 42,1 16,0 32,1 49,1 4,0 8,-1 10,-2 3,-1 4,-3 4,-6 0,-2 -1,-3 -3,-4 -2,-1 -5,-2 -9,-2 -4,0 -8,0 -13,0 -5,0 -9,-1 -14,-1 -5,0 -9,-1 -12,-1 -8,-1 -13,-3 -18,-6 -4,-3 -7,-7 -9,-12 -2,-5 -3,-11 -4,-18 -1,-11 -2,-24 -2,-41 0,-16 -1,-35 -1,-56 0,-21 0,-43 0,-68l0 -132c0,-23 0,-42 0,-58 0,-16 0,-29 0,-40 0,-11 0,-20 0,-27 0,-7 0,-13 0,-19 0,-5 1,-10 1,-15 1,-13 3,-23 7,-30 4,-7 11,-11 21,-13 4,-1 9,-1 12,-2 4,0 7,0 11,0 4,0 7,0 9,-1 2,-1 3,-3 3,-6 0,-2 -2,-4 -4,-5 -3,-1 -7,-1 -12,-1 -7,0 -15,0 -24,0 -9,0 -17,0 -26,1 -9,0 -17,0 -24,1 -8,0 -14,0 -19,0 -6,0 -13,0 -21,0 -8,0 -17,0 -26,-1 -9,0 -19,-1 -28,-1 -9,0 -17,0 -25,0 -6,0 -11,0 -14,1 -3,1 -5,3 -5,5 0,3 1,5 3,6 2,1 5,1 9,1 5,0 9,0 14,1 5,0 9,1 14,2 8,2 15,6 19,13 4,7 7,16 7,29 0,5 1,10 1,15 0,5 0,11 1,19 0,7 0,16 0,27 0,11 0,24 0,40 0,16 0,35 0,58l0 132z"/>
     <path class="fil1" d="M3591 5732c14,0 27,-1 41,-3 14,-2 28,-5 41,-9 14,-4 27,-11 40,-19 18,-12 33,-25 43,-40 11,-15 18,-30 22,-45 4,-16 7,-31 6,-45 0,-18 -2,-34 -7,-50 -4,-16 -12,-31 -21,-46 -10,-15 -23,-30 -39,-46 -16,-15 -36,-32 -59,-48l-21 -16c-21,-16 -37,-29 -49,-41 -12,-12 -20,-23 -25,-34 -5,-11 -7,-22 -7,-33 0,-15 4,-28 11,-40 7,-12 18,-21 31,-27 14,-6 30,-10 49,-10 16,0 30,2 41,6 11,4 20,9 27,14 7,6 12,11 16,16 5,7 9,13 12,20 3,7 5,13 6,18 1,5 2,9 2,11 0,4 1,8 2,10 1,2 3,3 6,3 3,0 5,-2 7,-5 1,-3 2,-9 2,-17 0,-19 0,-35 1,-47 1,-12 1,-21 2,-28 1,-7 1,-11 1,-15 0,-3 -1,-5 -3,-6 -2,-1 -4,-2 -8,-3 -10,-3 -23,-6 -40,-8 -17,-3 -37,-4 -62,-4 -27,0 -51,4 -73,10 -22,7 -40,17 -56,29 -16,13 -27,28 -36,45 -8,17 -13,36 -13,57 0,20 3,40 11,59 7,19 19,38 36,58 17,19 39,40 67,61l35 27c16,12 29,23 39,34 10,11 17,21 23,30 5,10 9,19 11,28 2,9 3,18 3,27 0,10 -2,20 -6,30 -4,10 -11,19 -19,27 -9,8 -19,15 -32,20 -13,5 -28,8 -45,8 -16,0 -31,-2 -46,-7 -15,-5 -27,-13 -39,-24 -11,-11 -20,-26 -25,-44 -2,-6 -4,-13 -5,-20 -1,-7 -2,-13 -2,-18 0,-3 0,-6 -1,-9 -1,-3 -3,-4 -6,-4 -3,0 -5,2 -7,5 -1,4 -2,8 -3,14 0,3 -1,8 -1,15 0,7 -1,14 -1,23 -1,9 -1,19 -1,29 0,10 -1,21 -1,31 0,5 0,10 1,13 1,3 2,6 4,7 2,2 5,4 9,5 16,7 33,12 52,15 18,3 38,4 60,4z"/>
     <path class="fil1" d="M5004 5472c0,36 3,67 8,92 5,25 13,46 22,64 9,17 20,31 32,43 13,12 26,22 40,29 14,7 28,12 42,15 14,3 27,5 40,6 12,1 23,1 33,1 15,0 31,-1 47,-4 16,-3 32,-8 49,-16 17,-8 33,-19 50,-34 15,-14 26,-29 35,-46 9,-17 15,-36 20,-55 5,-20 8,-40 9,-61 2,-21 2,-42 2,-63l0 -80c0,-23 0,-42 0,-58 0,-16 0,-29 0,-40 0,-11 0,-20 0,-27 0,-7 0,-13 0,-19 0,-5 0,-10 1,-15 0,-13 3,-23 6,-30 4,-7 10,-11 19,-13 4,-1 7,-1 10,-2 3,0 6,0 10,0 4,0 7,0 9,-1 2,-1 3,-3 3,-5 0,-3 -1,-4 -4,-5 -2,-1 -6,-1 -11,-1 -7,0 -15,0 -23,0 -8,0 -16,0 -24,1 -8,0 -15,0 -20,1 -6,0 -10,0 -12,0 0,0 -3,0 -8,0 -5,0 -11,0 -19,-1 -8,0 -17,-1 -26,-1 -9,0 -18,0 -27,0 -5,0 -8,0 -11,1 -2,1 -4,3 -4,5 0,2 1,4 3,5 2,1 5,1 9,1 3,0 6,0 9,0 3,0 6,0 9,1 3,0 5,1 7,1 8,2 13,4 18,8 4,3 7,8 9,14 2,6 3,13 3,21 0,5 1,10 1,15 0,5 0,11 0,19 0,7 0,16 0,27 0,11 0,24 0,40 0,16 0,35 0,58l0 93c0,19 0,38 -1,56 -1,18 -2,35 -5,50 -3,16 -7,30 -12,44 -6,13 -13,25 -23,36 -9,10 -20,18 -31,24 -11,6 -22,10 -33,13 -11,3 -22,4 -32,4 -8,0 -17,0 -26,-2 -10,-1 -19,-4 -30,-9 -10,-4 -21,-11 -31,-20 -9,-7 -16,-16 -23,-26 -7,-10 -12,-22 -17,-36 -5,-14 -8,-31 -11,-51 -2,-20 -4,-43 -4,-70l0 -105c0,-23 0,-42 0,-58 0,-16 0,-29 0,-40 0,-11 0,-20 0,-27 0,-7 0,-13 0,-19 0,-5 0,-10 1,-15 0,-13 3,-23 6,-30 4,-7 10,-11 19,-13 4,-1 7,-1 10,-2 3,0 6,0 10,0 3,0 6,0 8,-1 2,-1 3,-3 3,-5 0,-3 -1,-4 -4,-5 -3,-1 -6,-1 -12,-1 -6,0 -14,0 -22,0 -8,0 -16,0 -24,1 -8,0 -16,0 -23,1 -7,0 -13,0 -17,0 -7,0 -16,0 -27,-1 -11,0 -23,-1 -36,-1 -13,0 -26,-1 -38,-1 -5,0 -9,0 -12,1 -2,1 -4,3 -4,5 0,2 1,4 3,5 2,1 5,1 9,1 5,0 10,0 15,0 5,0 9,1 12,2 8,2 13,4 18,8 4,3 7,8 9,14 2,6 3,13 3,21 0,5 0,10 1,15 0,5 0,11 0,19 0,7 0,16 0,27 0,11 0,24 0,40 0,16 0,35 0,58l0 109z"/>
    </g>
    <g>
     <path class="fil1" d="M2357 5505c0,24 0,47 0,68 0,21 -1,39 -1,55 -1,16 -1,30 -3,40 -1,11 -3,19 -6,26 -3,6 -8,10 -16,12 -3,1 -7,1 -12,2 -5,0 -10,1 -16,1 -4,0 -8,0 -10,2 -2,1 -3,2 -3,4 0,3 1,4 4,6 3,1 6,2 11,2 8,0 16,0 26,0 9,0 18,0 28,-1 9,0 18,0 25,-1 8,0 14,0 18,0 7,0 17,0 29,1 12,0 26,1 42,1 16,0 32,1 49,1 4,0 8,-1 10,-2 3,-1 4,-3 4,-6 0,-2 -1,-3 -3,-4 -2,-1 -5,-2 -9,-2 -4,0 -8,0 -13,0 -5,0 -9,-1 -14,-1 -5,0 -9,-1 -12,-1 -8,-1 -13,-3 -18,-6 -4,-3 -7,-7 -9,-12 -2,-5 -3,-11 -4,-18 -1,-11 -2,-24 -2,-41 0,-16 -1,-35 -1,-56 0,-21 0,-43 0,-68l0 -132c0,-23 0,-42 0,-58 0,-16 0,-29 0,-40 0,-11 0,-20 0,-27 0,-7 0,-13 0,-19 0,-5 1,-10 1,-15 1,-13 3,-23 7,-30 4,-7 11,-11 21,-13 4,-1 9,-1 12,-2 4,0 7,0 11,0 4,0 7,0 9,-1 2,-1 3,-3 3,-6 0,-2 -2,-4 -4,-5 -3,-1 -7,-1 -12,-1 -7,0 -15,0 -24,0 -9,0 -17,0 -26,1 -9,0 -17,0 -24,1 -8,0 -14,0 -19,0 -6,0 -13,0 -21,0 -8,0 -17,0 -26,-1 -9,0 -19,-1 -28,-1 -9,0 -17,0 -25,0 -6,0 -11,0 -14,1 -3,1 -5,3 -5,5 0,3 1,5 3,6 2,1 5,1 9,1 5,0 9,0 14,1 5,0 9,1 14,2 8,2 15,6 19,13 4,7 7,16 7,29 0,5 1,10 1,15 0,5 0,11 1,19 0,7 0,16 0,27 0,11 0,24 0,40 0,16 0,35 0,58l0 132z"/>
     <path class="fil1" d="M1751 5501c0,23 0,45 0,65 0,20 0,38 -1,54 0,16 -1,29 -2,40 -1,7 -2,14 -3,20 -1,6 -3,11 -6,14 -2,4 -6,6 -10,7 -3,1 -6,1 -10,2 -4,0 -9,1 -14,1 -4,0 -7,0 -8,2 -2,1 -2,2 -2,4 0,3 1,4 3,6 2,1 6,2 10,2 7,0 14,0 22,-1 8,0 16,-1 24,-1 8,0 16,-1 22,-1 7,0 12,0 16,0 8,0 18,0 30,1 11,1 23,2 36,3 13,1 26,2 39,3 13,1 26,1 38,1 31,0 58,-3 83,-9 24,-6 46,-13 64,-22 18,-9 34,-19 47,-29 13,-10 23,-20 31,-29 9,-11 18,-23 27,-37 9,-14 16,-30 23,-48 7,-18 12,-37 16,-57 4,-21 6,-43 6,-66 0,-30 -3,-56 -9,-80 -6,-24 -14,-45 -24,-63 -10,-18 -20,-34 -32,-47 -15,-17 -31,-31 -48,-42 -17,-11 -35,-19 -54,-25 -19,-6 -38,-10 -57,-13 -19,-3 -38,-4 -56,-5 -19,0 -36,-1 -53,-1 -13,0 -27,0 -40,1 -13,0 -25,1 -36,1 -11,0 -20,1 -27,1 -6,0 -15,0 -25,-1 -10,0 -22,-1 -34,-1 -12,0 -25,-1 -37,-1 -5,0 -9,0 -11,1 -2,1 -4,3 -4,5 0,2 1,4 3,5 2,1 5,1 8,1 5,0 10,0 15,0 5,0 9,1 11,2 7,2 13,4 17,8 4,3 7,8 9,14 2,6 3,13 3,21 0,5 0,10 1,15 0,5 0,11 0,19 0,7 0,16 0,27 0,11 0,24 0,40 0,16 0,35 0,58l0 132zm84 -144c0,-15 0,-30 0,-45 0,-15 0,-29 0,-43 0,-14 0,-26 0,-36 0,-11 0,-19 0,-26 0,-4 1,-7 2,-9 1,-2 3,-4 6,-5 1,-1 4,-2 7,-2 3,-1 7,-1 12,-2 4,0 9,-1 13,-1 4,0 8,0 12,0 13,0 28,1 43,2 16,2 32,5 48,10 17,5 33,13 50,23 17,10 33,23 48,40 7,8 15,17 22,29 7,11 14,25 21,40 6,16 11,33 15,53 4,20 6,41 6,65 0,26 -2,50 -5,73 -3,23 -9,44 -17,63 -8,19 -19,36 -34,49 -13,13 -27,23 -43,31 -15,8 -32,14 -50,17 -18,4 -39,5 -61,5 -17,0 -32,-2 -44,-5 -12,-3 -21,-7 -28,-11 -7,-4 -12,-9 -15,-14 -2,-3 -3,-8 -4,-14 -1,-7 -2,-14 -2,-21 0,-8 -1,-15 -1,-21 0,-5 0,-14 -1,-28 0,-14 0,-31 0,-52 0,-21 0,-45 0,-71l0 -94z"/>
     <path class="fil1" d="M2688 5309l2 0c3,3 8,9 15,17 8,8 17,19 28,31 11,13 24,26 37,41 14,15 28,31 43,47 15,16 31,33 46,49 19,19 38,40 58,61 20,21 39,41 58,61 19,20 37,39 53,55 16,17 30,31 41,42 4,4 8,8 12,11 4,3 8,5 12,5 3,0 6,-2 7,-5 2,-4 2,-10 2,-18l8 -472c0,-14 1,-25 3,-34 2,-9 4,-15 8,-20 4,-5 9,-8 16,-10 4,-1 8,-2 11,-2 3,0 7,0 10,0 9,0 13,-2 13,-7 0,-3 -2,-5 -5,-6 -3,-1 -7,-1 -12,-1 -12,0 -22,0 -32,1 -10,0 -18,1 -24,1 -7,0 -11,1 -14,1 -5,0 -12,0 -21,-1 -9,0 -19,-1 -30,-1 -11,0 -23,-1 -36,-1 -5,0 -10,0 -13,1 -3,1 -5,3 -5,6 0,2 1,4 3,5 2,1 5,2 9,2 3,0 7,0 12,0 5,0 9,0 14,1 5,1 9,2 12,3 6,2 10,6 14,11 3,5 6,12 8,21 2,9 3,21 3,36l7 336 -4 0c-3,-3 -8,-8 -16,-17 -8,-9 -18,-20 -30,-33 -12,-13 -24,-27 -38,-41 -13,-15 -26,-29 -39,-42 -13,-14 -24,-26 -34,-36 -21,-22 -42,-44 -62,-65 -20,-22 -40,-42 -58,-62 -18,-20 -35,-38 -49,-53 -15,-16 -26,-29 -35,-39 -9,-10 -14,-16 -16,-18 -6,-7 -11,-12 -15,-17 -4,-4 -8,-6 -12,-6 -3,0 -6,2 -7,7 -1,5 -2,11 -2,18l-6 440c0,22 -1,39 -2,52 -1,13 -3,23 -6,29 -3,6 -8,10 -14,12 -5,1 -11,2 -16,3 -6,0 -11,1 -16,1 -4,0 -6,0 -8,1 -2,1 -3,2 -3,5 0,3 2,5 4,6 3,1 7,1 11,1 13,0 24,0 35,-1 11,0 20,-1 27,-1 8,0 12,-1 15,-1 7,0 17,0 32,1 15,1 33,1 57,1 5,0 9,0 12,-1 3,-1 4,-3 4,-6 0,-2 -1,-4 -3,-5 -2,-1 -5,-1 -9,-1 -6,0 -12,0 -18,-1 -6,-1 -13,-2 -19,-4 -5,-2 -9,-5 -13,-11 -4,-6 -6,-14 -9,-26 -2,-11 -3,-27 -4,-46l-8 -312z"/>
    </g>
   </g>
   <g>
    <g>
     <path class="fil0" d="M4611 2512c-400,58 -641,126 -1041,276 0,0 406,-277 1117,-472 18,-5 -58,191 -76,196z"/>
     <path class="fil0" d="M3417 2911c-165,-157 -396,-302 -994,-484 0,0 701,72 1141,366 19,13 -130,131 -148,118z"/>
    </g>
    <path class="fil2" d="M4616 0c0,0 74,4 74,68l0 893 0 981c0,0 -18,187 -168,268 -142,77 -475,182 -610,230 -182,66 -349,144 -356,147l0 0 0 0 0 0 0 0c-6,-3 -143,-67 -281,-115 -176,-61 -284,-117 -627,-239 -239,-84 -225,-209 -225,-209l0 -1064 0 -893c0,-65 74,-68 74,-68l2118 0zm-1882 2184c-9,2 -27,14 -39,20 59,20 122,43 184,65 29,-47 -64,-109 -145,-85zm-264 -343l0 102c35,6 47,-10 38,-48 -5,-22 -5,-38 -38,-54z"/>
    <g>
     <path class="fil1" d="M2470 1841l0 102c35,6 47,-10 38,-48 -4,-20 -7,-41 -38,-54z"/>
     <path class="fil1" d="M2724 2188c-12,7 -19,10 -30,16 59,20 122,43 185,66 30,-58 -86,-114 -155,-81z"/>
    </g>
    <path class="fil1" d="M4481 1663c0,0 10,-24 -1,-30 -10,-6 -19,-15 -33,-19 -28,-8 -41,-12 -69,0 -72,20 -125,30 -153,116 -28,86 -177,130 -215,146l40 -28c71,-30 105,-51 143,-119 6,-10 22,-68 57,-109 35,-42 98,-25 161,-45 7,-2 10,-7 13,-13 3,-6 -5,-11 -13,-16 -10,-5 -20,-9 -35,-15 -11,-4 -16,-20 -31,-22 -20,-2 -86,-9 -110,-6 -44,7 -112,53 -138,64 -101,45 -136,28 -136,28 81,-15 149,-68 204,-102 6,-4 -64,-5 -77,-5 -3,1 24,-9 57,-18 26,-12 69,-23 102,-27 59,-8 91,7 140,22 14,4 34,37 42,52 0,1 81,28 82,83 0,13 -1,48 -30,62zm-974 -1395l6 17c73,288 441,499 523,552 102,55 117,65 24,209 -23,30 -10,16 -67,96 -56,80 -114,453 -114,453 0,0 -14,-249 19,-599 40,-174 -442,-388 -392,-729zm-63 704c-46,-225 -74,-202 -229,-282 -315,-197 -147,-92 -497,-395 29,259 287,471 579,571 -407,-59 -755,-402 -730,-763 320,274 518,462 942,588 47,14 65,18 85,69 -13,-11 -27,-7 -33,-12 -17,113 -104,330 127,657 2,-16 3,-31 4,-46 4,2 7,5 10,7 21,62 82,141 106,212 -214,-200 -319,-381 -365,-606zm180 747c-47,94 -526,195 -639,104l61 -107c3,144 534,70 578,3zm-646 -429c54,8 108,16 167,24 -11,8 -21,16 -34,26 108,73 211,50 313,11 -144,124 -364,80 -446,-62zm-127 -266c62,32 126,52 190,86 -12,4 -27,10 -41,15 51,95 169,121 386,130 -272,74 -521,-46 -535,-230zm258 459c49,-4 97,-8 149,-12 -6,10 -12,20 -20,33 105,48 187,7 266,-57 -83,157 -275,152 -395,37zm507 85c-58,143 -222,169 -312,91 34,-17 54,-40 87,-63 -3,9 -9,45 5,61 90,21 153,-33 220,-89zm-1003 -1052c75,76 190,170 286,239 -21,-3 -67,-8 -95,-12 107,219 311,297 576,335 -372,21 -758,-202 -768,-561zm2035 1376l0 -913 0 -847c0,-82 -71,-87 -71,-87l-1031 0 -1005 0c0,0 -71,-4 -71,87l0 847 0 732c7,5 19,8 29,1l28 -15c21,1 39,3 54,14l-33 41c-14,24 -17,54 8,67 25,16 46,25 56,48 3,-13 0,-28 7,-47 3,-8 44,-2 56,2 0,0 5,14 2,22 49,-23 74,-39 106,-51 0,0 64,3 77,4 0,0 -78,28 -124,65 -5,-4 -64,32 -49,95 46,60 185,95 267,100 82,5 104,-5 203,-40 -56,69 -111,101 -167,99 -35,13 11,32 70,41 59,9 107,23 269,-74 223,-101 399,-149 653,-194 -105,33 -242,60 -468,213 -83,56 -157,110 -214,181 179,-109 202,-83 496,-182 -366,217 -483,250 -437,354 134,46 198,87 202,89l0 0 0 0 0 0 0 0c6,-3 216,-101 421,-169 136,-44 382,-124 512,-192 162,-84 155,-290 155,-290z"/>
   </g>
  </g>
 </g>
</svg>
